<?xml version="1.0" encoding="utf-8"?>
<!-- Generator: Adobe Illustrator 16.0.0, SVG Export Plug-In . SVG Version: 6.00 Build 0)  -->
<!DOCTYPE svg PUBLIC "-//W3C//DTD SVG 1.1//EN" "http://www.w3.org/Graphics/SVG/1.1/DTD/svg11.dtd">
<svg version="1.1" id="Layer_1" xmlns="http://www.w3.org/2000/svg" xmlns:xlink="http://www.w3.org/1999/xlink" x="0px" y="0px"
	 width="156.667px" height="160.363px" viewBox="0 0 156.667 160.363" enable-background="new 0 0 156.667 160.363"
	 xml:space="preserve">
<g>
	<path fill="#FFFFFF" d="M123.284,74.982c0,0-11.992-37.579-52.072-19.209c-27.359,13.11-17.789,47.044-17.789,47.044
		s-0.714,0.785,1.542,6.152c2.259,5.367,8.335,17.65,3.108,17.145c0.105,2.307,0.299,3.469,0.299,3.469s17.273,0.293,24.123,2.346
		c1.79-2.02,2.642-3.494,2.642-3.494s-4.896-20.926,6.271-29.496c3.334-3.584,1.496-2.193,2.771-9.406
		c1.27-7.216,7.553-2.992,7.553-2.992l28.144-0.988c0,0,0.665-2.975-3.908-4.152c-1.992-2.594-2.873-4.001-2.873-4.001
		L123.284,74.982z"/>
	<path fill="#FFFFFF" stroke="#FFFFFF" stroke-miterlimit="10" d="M97.06,94.919c0,0,6.918,15.002,15.906,7.439
		c8.982-7.562,4.29,15.496,13.362,45.572c-15.84-9.549-31.718-12.793-31.718-12.793s-2.484-19.279-5.121-23.508
		c-2.639-4.229,2.105-8.691,4.356-12.004C96.097,96.315,97.06,94.919,97.06,94.919z"/>
	<g>
		<line fill="#FFFFFF" x1="127.144" y1="54.014" x2="151.396" y2="33.205"/>
		
			<rect x="137.854" y="27.632" transform="matrix(0.651 0.759 -0.759 0.651 81.7002 -90.4924)" fill="#FFFFFF" width="2.83" height="31.956"/>
	</g>
	<g>
		<line fill="#FFFFFF" x1="123.339" y1="50.442" x2="145.247" y2="26.964"/>
		
			<rect x="132.878" y="22.649" transform="matrix(0.7313 0.682 -0.682 0.7313 62.4779 -81.1933)" fill="#FFFFFF" width="2.832" height="32.11"/>
	</g>
	<g>
		<line fill="#FFFFFF" x1="119.143" y1="47.03" x2="138.499" y2="21.639"/>
		
			<rect x="127.404" y="18.371" transform="matrix(0.7952 0.6063 -0.6063 0.7952 47.1986 -71.0758)" fill="#FFFFFF" width="2.828" height="31.927"/>
	</g>
	<g>
		<line fill="#FFFFFF" x1="114.279" y1="42.853" x2="131.991" y2="16.603"/>
		
			<rect x="121.722" y="13.894" transform="matrix(0.8288 0.5595 -0.5595 0.8288 37.7063 -63.8033)" fill="#FFFFFF" width="2.828" height="31.667"/>
	</g>
	<g>
		<line fill="#FFFFFF" x1="109.922" y1="40.336" x2="123.671" y2="12.086"/>
		
			<rect x="115.379" y="10.502" transform="matrix(0.8993 0.4372 -0.4372 0.8993 23.2174 -48.4293)" fill="#FFFFFF" width="2.83" height="31.419"/>
	</g>
	<g>
		<line fill="#FFFFFF" x1="104.69" y1="38.087" x2="115.507" y2="8.405"/>
		
			<rect x="108.683" y="7.453" transform="matrix(0.9393 0.3431 -0.3431 0.9393 14.6595 -36.3636)" fill="#FFFFFF" width="2.832" height="31.589"/>
	</g>
	<g>
		<line fill="#FFFFFF" x1="100.133" y1="36.614" x2="106.646" y2="6.802"/>
		
			<rect x="101.975" y="6.452" transform="matrix(0.9768 0.214 -0.214 0.9768 7.0429 -21.6276)" fill="#FFFFFF" width="2.833" height="30.514"/>
	</g>
	<g>
		<line fill="#FFFFFF" x1="94.647" y1="35.314" x2="99.181" y2="5.441"/>
		
			<rect x="95.499" y="5.27" transform="matrix(0.9887 0.1502 -0.1502 0.9887 4.1611 -14.3281)" fill="#FFFFFF" width="2.831" height="30.214"/>
	</g>
	<g>
		<line fill="#FFFFFF" x1="88.89" y1="35.138" x2="91.006" y2="4.057"/>
		
			<rect x="88.532" y="4.02" transform="matrix(0.9977 0.0681 -0.0681 0.9977 1.5436 -6.0808)" fill="#FFFFFF" width="2.832" height="31.154"/>
	</g>
	<g>
		<line fill="#FFFFFF" x1="83.528" y1="34.976" x2="81.742" y2="4.911"/>
		
			<rect x="67.577" y="18.528" transform="matrix(0.0593 0.9982 -0.9982 0.0593 97.6434 -63.7306)" fill="#FFFFFF" width="30.118" height="2.829"/>
	</g>
	<g>
		<line fill="#FFFFFF" x1="78.361" y1="35.954" x2="73.61" y2="7.134"/>
		
			<rect x="61.383" y="20.127" transform="matrix(0.1627 0.9867 -0.9867 0.1627 84.8778 -56.9375)" fill="#FFFFFF" width="29.209" height="2.832"/>
	</g>
	<g>
		<line fill="#FFFFFF" x1="73.085" y1="37.128" x2="64.856" y2="8.88"/>
		
			<rect x="54.261" y="21.589" transform="matrix(0.2795 0.9601 -0.9601 0.2795 71.7804 -49.6474)" fill="#FFFFFF" width="29.421" height="2.832"/>
	</g>
	<g>
		<line fill="#FFFFFF" x1="68.069" y1="39.067" x2="56.885" y2="11.557"/>
		
			<rect x="47.628" y="23.898" transform="matrix(0.3766 0.9264 -0.9264 0.3766 62.394 -42.0985)" fill="#FFFFFF" width="29.699" height="2.828"/>
	</g>
	<g>
		<line fill="#FFFFFF" x1="62.438" y1="40.542" x2="48.952" y2="14.848"/>
		
			<rect x="41.186" y="26.28" transform="matrix(0.4648 0.8854 -0.8854 0.4648 54.331 -34.4903)" fill="#FFFFFF" width="29.018" height="2.832"/>
	</g>
	<g>
		<line fill="#FFFFFF" x1="58.313" y1="43.919" x2="41.001" y2="19.813"/>
		
			<rect x="34.817" y="30.451" transform="matrix(0.5833 0.8123 -0.8123 0.5833 46.5762 -27.055)" fill="#FFFFFF" width="29.679" height="2.83"/>
	</g>
	<g>
		<line fill="#FFFFFF" x1="54.083" y1="47.003" x2="34.525" y2="24.463"/>
		
			<rect x="29.382" y="34.318" transform="matrix(0.6553 0.7554 -0.7554 0.6553 42.264 -21.148)" fill="#FFFFFF" width="29.844" height="2.832"/>
	</g>
	<g>
		<line fill="#FFFFFF" x1="49.575" y1="51.155" x2="28.81" y2="30.527"/>
		
			<rect x="24.558" y="39.424" transform="matrix(0.7095 0.7047 -0.7047 0.7095 40.167 -15.7556)" fill="#FFFFFF" width="29.271" height="2.832"/>
	</g>
	<g>
		<line fill="#FFFFFF" x1="46.149" y1="54.815" x2="22.908" y2="37.697"/>
		
			<rect x="20.097" y="44.839" transform="matrix(0.8051 0.5931 -0.5931 0.8051 34.1604 -11.4654)" fill="#FFFFFF" width="28.863" height="2.831"/>
	</g>
	<g>
		<line fill="#FFFFFF" x1="43.575" y1="59.684" x2="18.415" y2="43.972"/>
		
			<rect x="16.165" y="50.412" transform="matrix(0.8482 0.5296 -0.5296 0.8482 32.1519 -8.5508)" fill="#FFFFFF" width="29.664" height="2.832"/>
	</g>
	<g>
		<line fill="#FFFFFF" x1="39.658" y1="64.065" x2="14.38" y2="52.32"/>
		
			<rect x="13.079" y="56.777" transform="matrix(0.9069 0.4214 -0.4214 0.9069 27.0373 -5.9654)" fill="#FFFFFF" width="27.875" height="2.831"/>
	</g>
	<g>
		<line fill="#FFFFFF" x1="38.296" y1="70.402" x2="10.722" y2="59.623"/>
		
			<rect x="9.705" y="63.595" transform="matrix(0.9314 0.3641 -0.3641 0.9314 25.3508 -4.4612)" fill="#FFFFFF" width="29.607" height="2.831"/>
	</g>
	<g>
		<line fill="#FFFFFF" x1="36.661" y1="75.324" x2="8.214" y2="68.312"/>
		
			<rect x="7.788" y="70.401" transform="matrix(0.971 0.2392 -0.2392 0.971 17.8289 -3.2826)" fill="#FFFFFF" width="29.303" height="2.832"/>
	</g>
	<g>
		<line fill="#FFFFFF" x1="35.95" y1="80.142" x2="6.674" y2="76.564"/>
		
			<rect x="6.566" y="76.939" transform="matrix(0.9926 0.1214 -0.1214 0.9926 9.6696 -2.0078)" fill="#FFFFFF" width="29.495" height="2.828"/>
	</g>
	<g>
		<line fill="#FFFFFF" x1="35.761" y1="86.415" x2="6.401" y2="85.524"/>
		
			<rect x="6.393" y="84.556" transform="matrix(0.9995 0.0304 -0.0304 0.9995 2.622 -0.6009)" fill="#FFFFFF" width="29.375" height="2.827"/>
	</g>
	<g>
		<line fill="#FFFFFF" x1="35.622" y1="90.946" x2="6.166" y2="93.278"/>
		
			<rect x="19.481" y="77.34" transform="matrix(0.0784 0.9969 -0.9969 0.0784 111.0862 64.0597)" fill="#FFFFFF" width="2.827" height="29.547"/>
	</g>
	<g>
		<line fill="#FFFFFF" x1="36.388" y1="96.364" x2="6.88" y2="100.335"/>
		
			<rect x="20.218" y="83.464" transform="matrix(0.1342 0.991 -0.991 0.1342 116.1903 63.7124)" fill="#FFFFFF" width="2.83" height="29.773"/>
	</g>
	<g>
		<line fill="#FFFFFF" x1="37.819" y1="101.271" x2="8.515" y2="108.987"/>
		
			<rect x="21.751" y="89.979" transform="matrix(0.2539 0.9672 -0.9672 0.2539 118.9703 56.0318)" fill="#FFFFFF" width="2.831" height="30.301"/>
	</g>
	<g>
		<line fill="#FFFFFF" x1="39.409" y1="105.53" x2="11.713" y2="116.823"/>
		
			<rect x="24.145" y="96.221" transform="matrix(0.3777 0.9259 -0.9259 0.3777 118.8447 45.5134)" fill="#FFFFFF" width="2.831" height="29.912"/>
	</g>
	<path fill="#FFFFFF" d="M37.954,110.339c0,0-15.113,4.533-15.797,16.957c-0.687,12.422-15.781,26.406-16.414,27
		c-0.633,0.596,3.992,1.119,5.656,0.174c0.826,1.406-0.676,2.74-0.676,2.74S46.04,155.819,37.954,110.339z"/>
	<path fill="#FFFFFF" d="M41.669,105.229l-0.24-0.615c-0.117-0.299-11.471-30.07,10.304-51.459
		C62.169,42.906,76.38,37.596,90.696,38.59c13.279,0.922,25.195,7.037,32.689,16.783l0.367,0.472l-0.404,0.438
		c-2.4,2.618-3.588,3.912-4.249,4.486c-0.002,0.006-0.005,0.01-0.007,0.015l-0.006-0.004c-0.634,0.549-0.78,0.423-1.065,0.176
		c-0.532-0.464-0.08-1.009,0.136-1.271l0.047,0.038c0.557-0.555,2.363-2.501,3.697-3.955c-7.27-9.151-18.641-14.887-31.303-15.765
		c-13.928-0.964-27.729,4.195-37.875,14.166c-19.377,19.033-11.672,44.983-10.199,49.309l6.95-2.182l0.423,1.352L41.669,105.229z"/>
	<circle fill="#FFFFFF" cx="113.222" cy="55.32" r="1.728"/>
	<circle fill="#FFFFFF" cx="106.383" cy="50.966" r="1.729"/>
	<circle fill="#FFFFFF" cx="99.598" cy="48.686" r="1.728"/>
	<circle fill="#FFFFFF" cx="92.56" cy="47.088" r="1.726"/>
	<circle fill="#FFFFFF" cx="85.481" cy="46.873" r="1.727"/>
	<circle fill="#FFFFFF" cx="78.706" cy="48.051" r="1.727"/>
	<circle fill="#FFFFFF" cx="71.369" cy="50.593" r="1.728"/>
	<path fill="#FFFFFF" d="M66.95,53.917c-0.031,0.954-0.828,1.702-1.781,1.674c-0.952-0.029-1.704-0.827-1.676-1.78
		c0.029-0.955,0.828-1.703,1.781-1.673C66.228,52.166,66.976,52.962,66.95,53.917z"/>
	<circle fill="#FFFFFF" cx="60.142" cy="57.972" r="1.728"/>
	<circle fill="#FFFFFF" cx="55.301" cy="63.701" r="1.726"/>
	<circle fill="#FFFFFF" cx="51.263" cy="69.62" r="1.728"/>
	<path fill="#FFFFFF" d="M50.546,76.166c-0.029,0.952-0.824,1.704-1.779,1.673c-0.954-0.029-1.701-0.826-1.676-1.777
		c0.032-0.956,0.826-1.704,1.779-1.676C49.825,74.415,50.575,75.211,50.546,76.166z"/>
	<path fill="#FFFFFF" d="M50.009,82.427c-0.029,0.957-0.824,1.705-1.778,1.676c-0.953-0.029-1.703-0.824-1.674-1.777
		c0.03-0.955,0.825-1.705,1.778-1.677C49.288,80.679,50.04,81.474,50.009,82.427z"/>
	<path fill="#FFFFFF" d="M49.479,88.575c-0.03,0.957-0.828,1.703-1.781,1.674c-0.952-0.027-1.7-0.824-1.671-1.779
		c0.029-0.953,0.824-1.701,1.777-1.674C48.758,86.825,49.506,87.622,49.479,88.575z"/>
	<path fill="#FFFFFF" d="M49.969,95.218c-0.03,0.955-0.827,1.703-1.779,1.676c-0.954-0.031-1.704-0.828-1.673-1.781
		c0.026-0.955,0.821-1.705,1.777-1.674C49.245,93.466,49.996,94.263,49.969,95.218z"/>
</g>
</svg>
